<svg id="Layer_1" data-name="Layer 1" xmlns="http://www.w3.org/2000/svg" viewBox="70 290 550 130"><defs><style>.cls-1{fill:#2b2b2b;}.cls-2{fill:#3a6eb5;}.cls-3{fill:#00a69c;}.cls-4{fill:#7fd2cd;}.cls-5{fill:#007065;}.cls-6{fill:#9cb6da;}.cls-7{fill:#294e7a;}</style></defs><path class="cls-1" d="M249.51,328.41v53.91h10.67v-50.6a2.21,2.21,0,0,1,2.21-2.22h23.85v-9.95H258.37A8.85,8.85,0,0,0,249.51,328.41Z"/><path class="cls-2" d="M266.23,353.3a8.75,8.75,0,0,0,6.6,3h10.46v-9.77H260.38Z"/><path class="cls-1" d="M291.43,319.55h10.13v62.77H291.43Z"/><path class="cls-1" d="M318.72,380.21a23.86,23.86,0,0,1-9.33-9,26.33,26.33,0,0,1,0-25.74,23.93,23.93,0,0,1,9.33-9,28.56,28.56,0,0,1,26.54,0,23.93,23.93,0,0,1,9.33,9,26.33,26.33,0,0,1,0,25.74,23.86,23.86,0,0,1-9.33,9,28.48,28.48,0,0,1-26.54,0Zm21.43-7.93a15.14,15.14,0,0,0,5.74-5.74,16.83,16.83,0,0,0,0-16.32,15.07,15.07,0,0,0-5.74-5.74,16.27,16.27,0,0,0-8.2-2.07,16.11,16.11,0,0,0-8.12,2.07,14.74,14.74,0,0,0-5.69,5.74,17.12,17.12,0,0,0,0,16.32,14.81,14.81,0,0,0,5.69,5.74,16.2,16.2,0,0,0,8.12,2.06A16.37,16.37,0,0,0,340.15,372.28Z"/><polygon class="cls-1" points="413.63 334.43 405.55 367.82 395.25 335.15 385.83 335.15 375.62 368.19 367.63 334.43 357.14 334.43 369.24 382.32 380.36 382.32 390.58 348.39 400.72 382.32 411.84 382.32 424.04 334.43 413.63 334.43"/><path class="cls-1" d="M430.72,380.08a18.3,18.3,0,0,1-6.68-9.95l8.88-2.79a11,11,0,0,0,3.76,5.92,9.53,9.53,0,0,0,5.92,2,8,8,0,0,0,5.29-1.71,5.33,5.33,0,0,0,2.07-4.3,4.51,4.51,0,0,0-1.13-3.19,8.63,8.63,0,0,0-3-2q-1.83-.81-5.69-2.07a35.37,35.37,0,0,1-7.76-3.45,14.77,14.77,0,0,1-4.84-4.75,12.39,12.39,0,0,1-1.75-6.68,13,13,0,0,1,2.06-7.22,13.55,13.55,0,0,1,5.83-4.93,19.93,19.93,0,0,1,8.52-1.75,17.39,17.39,0,0,1,10.41,3.14,16.15,16.15,0,0,1,6.09,8.6l-8.6,2.79a9.45,9.45,0,0,0-3.05-4.49,7.81,7.81,0,0,0-4.94-1.61,8.1,8.1,0,0,0-4.88,1.39,4.34,4.34,0,0,0-1.93,3.72,4.86,4.86,0,0,0,.94,3.09,7.46,7.46,0,0,0,2.73,2.07A49.51,49.51,0,0,0,444,353.8a40.66,40.66,0,0,1,8.52,3.5,15.36,15.36,0,0,1,5.29,4.89,12.73,12.73,0,0,1,1.88,7,13.11,13.11,0,0,1-2.2,7.49,14,14,0,0,1-6.14,5,21.78,21.78,0,0,1-8.88,1.75A19.45,19.45,0,0,1,430.72,380.08Z"/><path class="cls-1" d="M484.11,343.31v-8.88h-9.78v-9.86H464.2V367.7q0,7.82,3.63,11.62t10.9,3.81a46,46,0,0,0,5.29-.36v-9.42a17,17,0,0,1-3.14.27q-3.67,0-5.11-1.39t-1.44-5.33v-20a3.55,3.55,0,0,1,3.55-3.55Z"/><path class="cls-1" d="M555.33,343.31v-8.88h-9.77v-9.86H535.42V367.7q0,7.82,3.63,11.62t10.9,3.81a46,46,0,0,0,5.29-.36v-9.42a17,17,0,0,1-3.14.27q-3.68,0-5.11-1.39c-1-.92-1.43-2.7-1.43-5.33v-20a3.54,3.54,0,0,1,3.54-3.55Z"/><path class="cls-1" d="M496.83,381.51a15.44,15.44,0,0,1-8.57-14.17,15.62,15.62,0,0,1,2.24-8.25,15.44,15.44,0,0,1,6.24-5.73,20.28,20.28,0,0,1,17.75-.05,14.81,14.81,0,0,1,6.06,5.61,15.76,15.76,0,0,1,2.15,8.25,16.15,16.15,0,0,1-2.29,8.65,15.07,15.07,0,0,1-6.18,5.69,20.1,20.1,0,0,1-17.4,0ZM518,373.08l.8-5.91-.71-5.3V351.74a9,9,0,0,0-2.83-7.08,11,11,0,0,0-7.58-2.51,20.8,20.8,0,0,0-7,1.21,34.85,34.85,0,0,0-7,3.45l-3.94-8.25a40.89,40.89,0,0,1,9.1-4,33,33,0,0,1,9.37-1.34q9.15,0,14.57,5t5.43,13.72v30.4h-8.79Zm-4.62,1.35a8.7,8.7,0,0,0,3.54-2.91,8.14,8.14,0,0,0,0-8.7,8.25,8.25,0,0,0-3.54-2.87,12.65,12.65,0,0,0-5.25-1,12.28,12.28,0,0,0-5.2,1,8.31,8.31,0,0,0-3.5,2.87,8.19,8.19,0,0,0,0,8.7,8.77,8.77,0,0,0,3.5,2.91,11.84,11.84,0,0,0,5.2,1.08A12.19,12.19,0,0,0,513.42,374.43Z"/><path class="cls-1" d="M570.6,380.44a23,23,0,0,1-9.37-8.79,27,27,0,0,1-.14-26.19,23.86,23.86,0,0,1,9.15-9,28.09,28.09,0,0,1,26-.18,22.71,22.71,0,0,1,9,8.74,25.71,25.71,0,0,1,3.27,13.1c0,1.31-.06,2.6-.18,3.85h-9.77a21.78,21.78,0,0,0,.45-3.67,19,19,0,0,0-1.93-8.88,13.36,13.36,0,0,0-5.43-5.61,16.68,16.68,0,0,0-8.16-1.92,16.2,16.2,0,0,0-8.34,2.1,14.82,14.82,0,0,0-5.6,5.83,17.65,17.65,0,0,0-2,8.57,16.81,16.81,0,0,0,2.2,8.74,14.81,14.81,0,0,0,5.92,5.7,17.28,17.28,0,0,0,8.2,2,19.54,19.54,0,0,0,8.74-1.88,16.58,16.58,0,0,0,6.42-5.74l8,4.75a23.69,23.69,0,0,1-9.87,8.88,31.59,31.59,0,0,1-13.36,2.69A28.18,28.18,0,0,1,570.6,380.44Zm-5.92-26.28h37.84V362H564.68Z"/><path class="cls-3" d="M464.66,412.29l.94-1.86a11.14,11.14,0,0,0,7.51,2.77c4.26,0,6.11-1.79,6.11-4,0-6.25-14-2.41-14-10.83,0-3.35,2.6-6.25,8.39-6.25a12.81,12.81,0,0,1,7,2l-.81,1.92a11.71,11.71,0,0,0-6.24-1.89c-4.16,0-6,1.86-6,4.13,0,6.25,14,2.47,14,10.77,0,3.34-2.67,6.21-8.49,6.21C469.7,415.25,466.35,414,464.66,412.29Z"/><path class="cls-3" d="M504.7,413v2.08H488.6V392.29h15.61v2.08H491v8.1h11.77v2H491V413Z"/><path class="cls-3" d="M527.37,409H514.69L512,415.05h-2.51l10.41-22.76h2.37l10.41,22.76H530.1Zm-.88-2L521,394.79,515.57,407Z"/><path class="cls-3" d="M553.8,415.05l-5.2-7.32a15.14,15.14,0,0,1-1.82.1h-6.12v7.22h-2.4V392.29h8.52c5.78,0,9.3,2.93,9.3,7.8a7.07,7.07,0,0,1-5.21,7.16l5.56,7.8Zm-.13-15c0-3.64-2.41-5.72-7-5.72h-6.05v11.41h6.05C551.26,405.78,553.67,403.67,553.67,400.09Z"/><path class="cls-3" d="M561.6,403.67c0-6.67,5.07-11.58,11.94-11.58a11,11,0,0,1,8.32,3.32l-1.53,1.53a9,9,0,0,0-6.73-2.7,9.43,9.43,0,1,0,0,18.86,8.92,8.92,0,0,0,6.73-2.73l1.53,1.53a11.08,11.08,0,0,1-8.36,3.35C566.67,415.25,561.6,410.34,561.6,403.67Z"/><path class="cls-3" d="M607.43,392.29v22.76h-2.37v-10.5H590.81v10.5h-2.4V392.29h2.4v10.14h14.25V392.29Z"/><path class="cls-4" d="M218.31,353.34h0a8,8,0,0,1-8.05,8.05,7.91,7.91,0,0,1-4-1.09l-12.06-7-17.62,10.17a19.52,19.52,0,0,0-9.76,16.9v21.78a8,8,0,0,0,12.06,7L208.56,392a19.52,19.52,0,0,0,9.75-16.9V353.34h0"/><path class="cls-5" d="M210.26,345.29a8,8,0,0,0-4,1.08l-12.06,7,12.06,7a7.91,7.91,0,0,0,4,1.09,8,8,0,0,0,8.05-8.05h0a8,8,0,0,0-8.05-8"/><path class="cls-6" d="M118.86,346.37l12.06,7,17.62-10.18a19.5,19.5,0,0,0,9.75-16.89V304.48a8,8,0,0,0-8-8.05,7.91,7.91,0,0,0-4,1.09l-29.68,17.13a19.52,19.52,0,0,0-9.76,16.9v21.79A8,8,0,0,1,118.86,346.37Z"/><path class="cls-3" d="M206.26,346.37l-12.06,7-17.62-10.18a19.49,19.49,0,0,1-9.76-16.89V304.48a8,8,0,0,1,12.06-7l29.68,17.13a19.53,19.53,0,0,1,9.75,16.9v21.79A8,8,0,0,0,206.26,346.37Z"/><path class="cls-2" d="M162.83,344.53a8.8,8.8,0,0,0-9.05,8.33h0v3.58a5.59,5.59,0,0,1-2.39,5,6.07,6.07,0,0,1-6.34,0l-14.1-8.14-12.06,7a8,8,0,0,1-12.06-7h0v21.78a19.51,19.51,0,0,0,9.76,16.9l29.68,17.14a8,8,0,0,0,12-7V372.86c0-7.28,2.53-8.71,6.56-10.8l1.54-.8h0a8.79,8.79,0,0,0,5-8.27A8.92,8.92,0,0,0,162.83,344.53Z"/><path class="cls-7" d="M114.85,361.39a8,8,0,0,0,4-1.09l12.06-7-12.06-7a8,8,0,0,0-12.06,7h0A8,8,0,0,0,114.85,361.39Z"/></svg>